<?xml version="1.0"?>
<svg xmlns="http://www.w3.org/2000/svg" xmlns:xlink="http://www.w3.org/1999/xlink" version="1.1" id="Capa_1" x="0px" y="0px" viewBox="0 0 512 512" style="enable-background:new 0 0 512 512;" xml:space="preserve" width="512px" height="512px" class=""><g><path style="fill:#FFFFFF" d="M512,256.005c0,68.38-26.629,132.664-74.98,181.015S324.385,512,256.005,512  S123.331,485.371,74.98,437.02S0,324.385,0,256.005S26.629,123.331,74.98,74.98S187.625,0,256.005,0S388.669,26.629,437.02,74.98  S512,187.625,512,256.005z" data-original="#F5F0EB" class="active-path" data-old_color="#ffffff"/><path style="fill:#FFFFFF" d="M512,256.005c0,68.38-26.629,132.664-74.98,181.015S324.385,512,256.005,512V0  c68.38,0,132.664,26.629,181.015,74.98S512,187.625,512,256.005z" data-original="#DCD2CD" class="" data-old_color="#ffffff"/><path style="fill:#A7D22A;" d="M446.734,256.005c0,105.164-85.565,190.719-190.729,190.719  c-105.174,0-190.729-85.555-190.729-190.719c0-105.174,85.555-190.729,190.729-190.729  C361.169,65.276,446.734,150.831,446.734,256.005z" data-original="#A7D22A" class=""/><path style="fill:#66BB00;" d="M446.734,256.005c0,105.164-85.565,190.719-190.729,190.719V65.276  C361.169,65.276,446.734,150.831,446.734,256.005z" data-original="#66BB00" class=""/><path style="fill:#FFFFFF;" d="M316.714,233.532l-60.709,60.719l-5.548,5.548c-2.974,2.974-6.87,4.457-10.776,4.457h-0.23  c-3.846,0-7.691-1.462-10.626-4.396l-32.678-32.688c-5.869-5.859-5.869-15.373,0-21.241s15.383-5.869,21.241,0l21.932,21.922  l16.684-16.684l39.177-39.177c5.949-5.949,15.593-5.949,21.532,0C322.663,217.939,322.663,227.583,316.714,233.532z" data-original="#FFFFFF"/><path style="fill:#FFFFFF" d="M316.714,233.532l-60.709,60.719v-43.083l39.177-39.177c5.949-5.949,15.593-5.949,21.532,0  C322.663,217.939,322.663,227.583,316.714,233.532z" data-original="#F5F0EB" class="active-path" data-old_color="#ffffff"/></g> </svg>
